# xmcd
#
# Track frame offsets: 
#        150
#        13795
#        24633
#        42811
#        59119
#        74693
#        89906
#        102859
#        118433
#        133783
#        152040
#
# Disc length: 2338 seconds
#
# Revision: 0
# Processed by: cddbd v1.5.2PL0 Copyright (c) Steve Scherf et al.
# Submitted via: ExactAudioCopyFreeDBPlugin 1.0
#
DISCID=a809200b
DTITLE=Pau Riba i Pascal Comelade - Mosques de colors
DYEAR=2013
DGENRE=Folk
TTITLE0=Mosques de colors
TTITLE1=El xiclet del temps
TTITLE2=Contacte digital
TTITLE3=La bruixa del matí
TTITLE4=Virtuosa harmonia
TTITLE5=On y va
TTITLE6=Peixet de plata
TTITLE7=Ha passat un àngel
TTITLE8=No cal pas, Pascal
TTITLE9=Els teus somriures
TTITLE10=Taxista
EXTD=
EXTT0=
EXTT1=
EXTT2=
EXTT3=
EXTT4=
EXTT5=
EXTT6=
EXTT7=
EXTT8=
EXTT9=
EXTT10=
PLAYORDER=
